<svg width="55" height="24" viewBox="0 0 55 24" fill="none" xmlns="http://www.w3.org/2000/svg">
<path d="M14.064 0.407999V3.992H4.56V10.04H12.176V13.496H4.56V23H0.0480001V0.407999H14.064ZM25.3025 5.048C27.0305 5.048 28.5772 5.41067 29.9425 6.136C31.3292 6.86133 32.4172 7.91733 33.2065 9.304C33.9958 10.6693 34.3905 12.28 34.3905 14.136C34.3905 15.992 33.9958 17.6027 33.2065 18.968C32.4172 20.3333 31.3292 21.3893 29.9425 22.136C28.5772 22.8613 27.0305 23.224 25.3025 23.224C23.5745 23.224 22.0172 22.8613 20.6305 22.136C19.2652 21.3893 18.1878 20.3333 17.3985 18.968C16.6092 17.6027 16.2145 15.992 16.2145 14.136C16.2145 12.28 16.6092 10.6693 17.3985 9.304C18.1878 7.91733 19.2652 6.86133 20.6305 6.136C22.0172 5.41067 23.5745 5.048 25.3025 5.048ZM25.3025 8.952C24.0438 8.952 22.9772 9.4 22.1025 10.296C21.2278 11.1707 20.7905 12.4507 20.7905 14.136C20.7905 15.8213 21.2278 17.112 22.1025 18.008C22.9772 18.8827 24.0438 19.32 25.3025 19.32C26.5612 19.32 27.6278 18.8827 28.5025 18.008C29.3772 17.112 29.8145 15.8213 29.8145 14.136C29.8145 12.4507 29.3772 11.1707 28.5025 10.296C27.6278 9.4 26.5612 8.952 25.3025 8.952ZM45.7713 5.048C47.4993 5.048 49.0459 5.41067 50.4113 6.136C51.7979 6.86133 52.8859 7.91733 53.6753 9.304C54.4646 10.6693 54.8593 12.28 54.8593 14.136C54.8593 15.992 54.4646 17.6027 53.6753 18.968C52.8859 20.3333 51.7979 21.3893 50.4113 22.136C49.0459 22.8613 47.4993 23.224 45.7713 23.224C44.0433 23.224 42.4859 22.8613 41.0993 22.136C39.7339 21.3893 38.6566 20.3333 37.8673 18.968C37.0779 17.6027 36.6833 15.992 36.6833 14.136C36.6833 12.28 37.0779 10.6693 37.8673 9.304C38.6566 7.91733 39.7339 6.86133 41.0993 6.136C42.4859 5.41067 44.0433 5.048 45.7713 5.048ZM45.7713 8.952C44.5126 8.952 43.4459 9.4 42.5713 10.296C41.6966 11.1707 41.2593 12.4507 41.2593 14.136C41.2593 15.8213 41.6966 17.112 42.5713 18.008C43.4459 18.8827 44.5126 19.32 45.7713 19.32C47.0299 19.32 48.0966 18.8827 48.9713 18.008C49.8459 17.112 50.2833 15.8213 50.2833 14.136C50.2833 12.4507 49.8459 11.1707 48.9713 10.296C48.0966 9.4 47.0299 8.952 45.7713 8.952Z" fill="black"/>
</svg>
